<svg id="Layer_1" data-name="Layer 1" xmlns="http://www.w3.org/2000/svg" xmlns:xlink="http://www.w3.org/1999/xlink" viewBox="0 0 432 204.1"><defs><style>.cls-1{fill:none;}.cls-2{fill:#3e6075;}.cls-3{fill:#000c1f;}.cls-4{clip-path:url(#clip-path);}.cls-5{fill:#ffef33;}.cls-6{fill:#ff8921;}.cls-7{fill:#ffab19;}</style><clipPath id="clip-path" transform="translate(0 -2.4)"><path id="mask" class="cls-1" d="M383.9,110.8,358.7,36.9a1.4,1.4,0,0,0-1.4-.9H307a1.3,1.3,0,0,0-1.3.9l-4.5,13.2a1.3,1.3,0,0,1-1.3.9H259.8a1.4,1.4,0,0,0-1.3,1l-9.2,27.9L240.2,52a1.4,1.4,0,0,0-1.4-1h-41L193,36.9a1.4,1.4,0,0,0-1.4-.9H141.3a1.3,1.3,0,0,0-1.3.9L121.1,92.3H102l18.6-54.5a1.4,1.4,0,0,0-1.4-1.8H79.9a1.4,1.4,0,0,0-1.3.9l-28.9,89a1.4,1.4,0,0,0,1.3,1.9h75.7a1.5,1.5,0,0,0,1.4-1l4.6-13.2a1.6,1.6,0,0,1,1.4-.9H217a1.6,1.6,0,0,1,1.4.9l4.5,13.2a1.3,1.3,0,0,0,1.3,1h50.3a1.4,1.4,0,0,0,1.3-1l4.5-13.2a1.5,1.5,0,0,1,1.4-.9H382.5A1.5,1.5,0,0,0,383.9,110.8Z"/></clipPath></defs><title>iLavaGames-Logo</title><path id="rock_formation" data-name="rock formation" class="cls-2" d="M.3,136l9-26.8a3.6,3.6,0,0,0,.2-1l1.4-9.8a5.6,5.6,0,0,1,1.7-3.3L28.3,79.4a5.9,5.9,0,0,0,1.4-2.3L39.5,48a5.6,5.6,0,0,1,1.7-2.5L61.7,27.1a7.5,7.5,0,0,0,1.5-2l5.8-13a5.9,5.9,0,0,1,5.6-3.5l25.9,1.2h1.2l29-5.1a5.9,5.9,0,0,1,4.8,1.3l8.7,7.3a6,6,0,0,0,6.4.8l10.7-5.2a5.9,5.9,0,0,1,3.2-.6l25.7,2.7h1.3l22.6-2.8a6,6,0,0,1,4.4,1.2l20.6,16.5a5.3,5.3,0,0,0,3.6,1.3l28.6.4a6.3,6.3,0,0,0,4.3-1.7L291.8,9.7A6.1,6.1,0,0,1,296.1,8l30.8.8,1.5-.2L353,2.5a5.9,5.9,0,0,1,3.7.3l23.7,9.7a6.1,6.1,0,0,1,3.5,4l6.1,23a7.8,7.8,0,0,0,1.2,2.2l19.1,22.5.8,1.3,20.3,43.7a5.3,5.3,0,0,1,.4,3.9l-11.3,45.2a5.5,5.5,0,0,1-1.2,2.4l-36,42.1a6.1,6.1,0,0,1-4.5,2l-134-.6a6.3,6.3,0,0,1-1.9-.3L204.6,191l-2.1-.3-44.6,1.9a5.1,5.1,0,0,0-2.4.7l-23.9,12.5a6.2,6.2,0,0,1-4.8.3l-20.6-7.6a8,8,0,0,0-3.1-.3l-39.5,7a6.3,6.3,0,0,1-3.8-.6l-37-19.2a5.5,5.5,0,0,1-2.6-2.8L.5,140.3A5.8,5.8,0,0,1,.3,136Z" transform="translate(0 -2.4)"/><g id="LAVA_outline" data-name="LAVA outline"><path class="cls-3" d="M362.2,30.9a2.5,2.5,0,0,0-2.3-1.8H307.5a2.3,2.3,0,0,0-2.3,1.8L301,42.7a2.4,2.4,0,0,1-2.3,1.7H260.4a2.3,2.3,0,0,0-2.3,1.8l-8.8,23.4-8.4-23.4a2.3,2.3,0,0,0-2.2-1.8H200.3a2.4,2.4,0,0,1-2.3-1.7l-4.2-11.8a2.3,2.3,0,0,0-2.2-1.8H140.3a2.4,2.4,0,0,0-2.3,1.8L118.5,89.5H105l19.4-58a1.2,1.2,0,0,0-1.2-1.4H77.9a2.4,2.4,0,0,0-2.3,1.7L44.7,125.4a2.1,2.1,0,0,0,1.9,2.7h80.9a2.6,2.6,0,0,0,2.3-1.7l4.3-11.9a2.3,2.3,0,0,1,2.3-1.7h78.8a2.3,2.3,0,0,1,2.2,1.7l4.2,11.8a2.3,2.3,0,0,0,2.3,1.8h51.2a2.3,2.3,0,0,0,2.3-1.8l4.2-11.8a2.3,2.3,0,0,1,2.2-1.7H385.6a2,2,0,0,0,1.9-2.6Z" transform="translate(0 -2.4)"/></g><g id="LAVA_detail" data-name="LAVA detail"><g class="cls-4"><g id="LAVA_wordmark" data-name="LAVA wordmark"><path class="cls-5" d="M384.5,112.7,358.3,36H306l-5.1,15H258.8l-9.5,28.9L239.9,51H198.8a1.3,1.3,0,0,1-1.3-.9L192.7,36H140.3L121.4,91.4a1.3,1.3,0,0,1-1.3.9H104a1.4,1.4,0,0,1-1.4-1.8L121.2,36H78.9L49.1,127.8h78.6l4.3-12a4.5,4.5,0,0,1,4.4-3.1h78.3a4.6,4.6,0,0,1,4.4,3.2l4.1,11.9h52.3l4.1-11.9a4.6,4.6,0,0,1,4.4-3.2Z" transform="translate(0 -2.4)"/></g><polygon class="cls-6" points="78.9 33.6 122.9 33.6 108.7 76 90.4 76 78.9 33.6"/><polygon class="cls-7" points="49.1 125.4 78.9 33.6 90.4 76 74 125.4 49.1 125.4"/><polygon class="cls-6" points="306 33.6 358.3 33.6 346.7 76 298.7 76 306 33.6"/><polygon class="cls-6" points="140.3 33.6 192.7 33.6 194.7 76 145.3 76 140.3 33.6"/><polygon class="cls-6" points="258.8 48.7 301.5 45.2 294.1 89.9 255.5 89.9 258.8 48.7"/><path id="flow1" class="cls-5" d="M84.8,57.4s18.6,7.1,37.5-2.2l-10.1,75.4-53.5,2.2s-1.8-6.9,3.1-14.7,5.5-15.6,8.1-23.2,5.2-12.2,10.7-19.4S84.8,57.4,84.8,57.4Z" transform="translate(0 -2.4)"/><polygon class="cls-6" points="197.8 48.7 239.9 48.7 238.1 89.9 198.8 90 197.8 48.7"/><polygon class="cls-7" points="192.7 33.6 197.8 48.7 198.7 89.8 194.7 76 192.7 33.6"/><polygon class="cls-7" points="301.5 45 306 33.6 298.7 76 294.5 88.8 301.5 45"/><polygon class="cls-7" points="249.9 66.2 258.8 48.7 255.5 89.9 246.8 116.6 249.9 66.2"/><polygon class="cls-7" points="239.9 48.7 249.9 66.2 246.8 116.6 238.1 89.9 239.9 48.7"/><polygon class="cls-6" points="102 90 120.8 88.5 127.7 125.4 110.6 125.4 102 90"/><polygon class="cls-7" points="120.8 89.1 140.3 33.6 145.3 76 127.7 125.4 120.8 89.1"/><polygon class="cls-7" points="358.3 33.6 384.5 110.3 358.7 110.3 346.7 76 358.3 33.6"/><path id="flow2" class="cls-5" d="M123.6,106.1a100,100,0,0,0,9.5-22.8c2.9-11.8,9.8-19,10-24.9A44.5,44.5,0,0,0,156,59c6.3-.8,14.9-3.8,25.3-1s12.2-3.3,12.2-3.3L198.2,70s1.8-3,12.4-3,9.2,2.4,17.3,2.4,10.8-3,10.8-3-1.3,7.9,4,12.8a18.5,18.5,0,0,1,5.8,11s6.4-7.5,8.4-15.1c0,0,6.5,7,20,.6s16.9,1.7,19.5.9c0,0,4.9-8.4,5.5-14.1,0,0,8.4,0,13.9-2.3s15.3-2.8,23.3.3,12.4,0,12.4,0-.4,9.7,6.8,13.5,8.9,12.5,9.3,18.7-.6,16.7,7.9,23.6l-88,6.7-6.3,10.4L212.7,131l-6.8-9.2-70.3-.2-4.7,8.6-18.8,4.1-7-18.3S119.5,116.3,123.6,106.1Z" transform="translate(0 -2.4)"/><path class="cls-7" d="M175.2,87.9H157.8l2.5,18.2c7.2.6,12.5-.5,15.7-3.6Z" transform="translate(0 -2.4)"/><path class="cls-7" d="M336.2,105.7l4.7-17.8H323.4l-3.3,17.4C323.3,103.5,329,103.9,336.2,105.7Z" transform="translate(0 -2.4)"/><path class="cls-3" d="M175.2,87.9l-7.4-23a1.4,1.4,0,0,0-2.6,0l-7.4,23Z" transform="translate(0 -2.4)"/><path class="cls-3" d="M340.9,87.9l-7.4-23a1.4,1.4,0,0,0-2.7,0l-7.4,23Z" transform="translate(0 -2.4)"/></g></g><path id="front_edge" data-name="front edge" class="cls-3" d="M392.5,151.9,380.6,196l5-37.8a2.4,2.4,0,0,0-2.3-2.7H367.7l9.8-11,.2-.3-.2-.3-8.5-9.5,6.5,9.8-12.7,11.3H306.2l8.5-3.9.7-.3-.3-.6-6.4-15.1,15.9-2.6h.1l-2.1-7.9.7,6.9L306.9,135h-.6l.2.5,5.7,14-12.5,6.1-54.5.2a2.4,2.4,0,0,0-2.4,2.4l.6,36.9-5.6-38.6a2.2,2.2,0,0,0-1.6-1.9L205,146.6a2.7,2.7,0,0,1-1.5-1.3l-5.5-9.6-.3-.5h-.5l-18.7-1.1-8.7-8h0l-5.1-.2L169,127l9.1,8.9h.3l18.2,1.9,4.3,9.5a8,8,0,0,1,.5,2.6l1.8,34.1-8.7-39.3a2.4,2.4,0,0,0-2.4-1.8l-38.4,1.7a2.3,2.3,0,0,0-2.2,2.6l3.3,37.5L145.1,149a2.3,2.3,0,0,0-3.3-1.5l-17.7,8.4a2.6,2.6,0,0,0-1.3,2.5l6.1,42.6-12.8-41.8a2.6,2.6,0,0,0-1.5-1.6l-16.4-5.4a2.4,2.4,0,0,0-3.1,2.8l9.2,38.1L89.1,152.7a2.3,2.3,0,0,0-2.6-1.5l-35,5.6a2.4,2.4,0,0,0-1.9,3l12,38.7L41.8,157a2,2,0,0,0-1.1-1.1l-29-13.6a1.2,1.2,0,0,0-1.6,1.5l13.8,35.6a3.8,3.8,0,0,0,1.6,1.9l36,18.9a2.2,2.2,0,0,0,1.4.2l41-6H105l23.1,7.6a2.3,2.3,0,0,0,1.8-.1l25.4-13.3a1.7,1.7,0,0,1,1-.3l46.9-2h.8l39.5,12.4.7.2,134.3,1a2.5,2.5,0,0,0,1.8-.8L416.1,159a4.8,4.8,0,0,0,.8-1.6l7.9-36.2a1.2,1.2,0,0,0-2-1l-29.7,30.6A2.4,2.4,0,0,0,392.5,151.9Z" transform="translate(0 -2.4)"/><path class="cls-7" d="M262.7,180H270v2.2a2.2,2.2,0,0,1-2.2,2.1h-7.3a2.1,2.1,0,0,1-2.1-2.1v-7.3a2.1,2.1,0,0,1,2.1-2.2h10.6v-2.9H260.5a5.1,5.1,0,0,0-5.1,5.1v7.3a5.1,5.1,0,0,0,5.1,5.1h7.3a5.1,5.1,0,0,0,5.1-5.1V177H262.7Z" transform="translate(0 -2.4)"/><path class="cls-7" d="M291.4,169.8h-7.3a5.1,5.1,0,0,0-5.1,5.1V177h0v10.3h3V180h11.6v7.3h2.9V180h0v-5.1A5.1,5.1,0,0,0,291.4,169.8ZM282,177v-2.1a2.2,2.2,0,0,1,2.1-2.2h7.3a2.2,2.2,0,0,1,2.2,2.2V177Z" transform="translate(0 -2.4)"/><path class="cls-7" d="M323.3,170.8a2.3,2.3,0,0,0-2.4.3l-7.3,5.6-7.3-5.6a2.3,2.3,0,0,0-2.4-.3,2.4,2.4,0,0,0-1.2,2.1v14.4h2.9V174.2l8,6.2,8-6.2v13.1h2.9V172.9A2.4,2.4,0,0,0,323.3,170.8Z" transform="translate(0 -2.4)"/><path class="cls-7" d="M329.9,174.9V177h0v5.2a5.1,5.1,0,0,0,5.2,5.1h12.3v-3H335.1a2.2,2.2,0,0,1-2.2-2.1V180h14.5v-3H332.9v-2.1a2.2,2.2,0,0,1,2.2-2.2h12.3v-2.9H335.1A5.1,5.1,0,0,0,329.9,174.9Z" transform="translate(0 -2.4)"/><path class="cls-7" d="M366,177h-7.3a2.1,2.1,0,0,1-2.2-2.1,2.2,2.2,0,0,1,2.2-2.2h10.5v-2.9H358.7a5.1,5.1,0,1,0,0,10.2H366a2.2,2.2,0,0,1,0,4.3H353.6v3H366a5.2,5.2,0,0,0,0-10.3Z" transform="translate(0 -2.4)"/><polygon class="cls-3" points="359.3 8.4 352.8 7.9 348.1 11.7 351 16.5 355.3 17.4 360.7 15.2 359.3 8.4"/><polygon class="cls-3" points="344.3 18.7 344.1 15.3 342.5 12.5 339 13.4 338.2 16.9 340.6 19.7 344.3 18.7"/><polygon class="cls-3" points="42.7 131.5 36 132.5 31.4 137.8 35.3 144.4 43.2 144.9 45.3 137.8 42.7 131.5"/><polygon class="cls-3" points="59.2 145.4 57.2 140.5 52.2 142.3 48.7 144.5 48.7 149 54.4 148.7 59.2 145.4"/><polygon class="cls-3" points="281.8 132.9 284.9 134.6 287.1 131 286.8 127.4 283.9 125.9 282.4 129.4 281.8 132.9"/><polygon class="cls-3" points="298.6 145 301.7 138.3 294.4 134.5 288.1 135.5 284.6 139.8 289.9 146.7 298.6 145"/><path class="cls-2" d="M165.2,64.9l-6.3,19.4h15.2l-6.3-19.4A1.4,1.4,0,0,0,165.2,64.9Z" transform="translate(0 -2.4)"/><path class="cls-2" d="M339.7,84.3l-6.2-19.4a1.4,1.4,0,0,0-2.7,0l-6.2,19.4Z" transform="translate(0 -2.4)"/><polygon class="cls-3" points="225.4 23.6 217.4 33.3 227.5 23.8 227.8 23.5 227.4 23.2 220.1 16.7 224.2 11.6 222.4 10.1 217.2 16.3 216.6 17 217.3 17.4 225.4 23.6"/><polygon class="cls-3" points="421.9 86.3 416.5 85.9 416.1 85.9 415.9 86.2 409.2 96.1 398.5 98.7 398.4 98.7 398.4 98.8 396.1 104.3 398.6 100.1 409.4 98 409.6 97.9 409.7 97.8 416.8 88.4 422.9 88.6 421.9 86.3"/><polygon class="cls-3" points="388.7 49.2 388.8 49 388.8 48.8 383 28.8 386.3 23.2 385.5 20.1 380.2 28.2 379.9 28.5 380.1 28.9 386.8 48.9 378.1 64.1 388.7 49.2"/><polygon class="cls-3" points="54.3 48.9 53.6 53.7 44.1 58.3 43.9 58.4 43.9 58.6 39.5 69.3 30.9 71.3 30.1 73.6 40.1 71.7 40.5 71.6 40.6 71.3 45.2 59.6 54.5 55 54.6 55 54.5 54.9 54.3 48.9"/><polygon class="cls-3" points="97.2 14.3 96.9 14.1 96.6 14.3 90 17.5 85.9 6.8 83.5 6.7 88.9 20.1 89.3 20.9 90 20.4 96.9 16.5 106.5 23 106.6 23.1 106.7 23 114 20.1 106.7 21.5 97.2 14.3"/><polygon class="cls-3" points="2.4 127.3 11.6 125.4 25.6 129.8 26 129.9 26.2 129.6 36.5 113.7 36.5 113.6 36.4 113.5 30.5 108.1 35 113.6 25.6 127.5 11.7 122.6 11.4 122.7 3.3 124.7 2.4 127.3"/></svg>